# xmcd
#
# Track frame offsets: 
#        150
#        19757
#        40312
#        68352
#        79760
#        96360
#        122272
#        131887
#        159962
#
# Disc length: 2702 seconds
#
# Revision: 3
# Processed by: cddbd v1.5PL3 Copyright (c) Steve Scherf et al.
# Submitted via: ExactAudioCopy v0.95a4
#
DISCID=670a8c09
DTITLE=Son House - Father of the Delta Blues: The Complete 1965 Sessio
DTITLE=ns [CD1]
DYEAR=1900
DGENRE=Blues
TTITLE0=Death Letter
TTITLE1=Pearline
TTITLE2=Louise McGhee
TTITLE3=John The Revelator
TTITLE4=Empire State Express
TTITLE5=Preachin' Blues
TTITLE6=Grinnin' In Your Face
TTITLE7=Sundown
TTITLE8=Levee Camp Moan
EXTD=
EXTT0=
EXTT1=
EXTT2=
EXTT3=
EXTT4=
EXTT5=
EXTT6=
EXTT7=
EXTT8=
PLAYORDER=
